<?xml version="1.0" encoding="UTF-8" standalone="no"?>
<!-- Created with Inkscape (http://www.inkscape.org/) -->

<svg
   width="64"
   height="64"
   viewBox="0 0 16.933333 16.933333"
   version="1.1"
   id="svg1"
   inkscape:version="1.4.2 (f4327f4, 2025-05-13)"
   sodipodi:docname="speedblight_v.svg"
   xmlns:inkscape="http://www.inkscape.org/namespaces/inkscape"
   xmlns:sodipodi="http://sodipodi.sourceforge.net/DTD/sodipodi-0.dtd"
   xmlns:xlink="http://www.w3.org/1999/xlink"
   xmlns="http://www.w3.org/2000/svg"
   xmlns:svg="http://www.w3.org/2000/svg">
  <sodipodi:namedview
     id="namedview1"
     pagecolor="#505050"
     bordercolor="#eeeeee"
     borderopacity="1"
     inkscape:showpageshadow="0"
     inkscape:pageopacity="0"
     inkscape:pagecheckerboard="0"
     inkscape:deskcolor="#505050"
     inkscape:document-units="mm"
     inkscape:zoom="5.7513468"
     inkscape:cx="5.8247227"
     inkscape:cy="13.822849"
     inkscape:window-width="1920"
     inkscape:window-height="1009"
     inkscape:window-x="1912"
     inkscape:window-y="357"
     inkscape:window-maximized="1"
     inkscape:current-layer="layer1" />
  <defs
     id="defs1">
    <linearGradient
       id="linearGradient1"
       inkscape:collect="always">
      <stop
         style="stop-color:#6b2f6b;stop-opacity:1;"
         offset="0"
         id="stop1" />
      <stop
         style="stop-color:#541754;stop-opacity:1;"
         offset="1"
         id="stop2" />
    </linearGradient>
    <radialGradient
       inkscape:collect="always"
       xlink:href="#linearGradient1"
       id="radialGradient2"
       cx="8.9362221"
       cy="4.6369762"
       fx="8.9362221"
       fy="4.6369762"
       r="3.4718673"
       gradientTransform="matrix(0.81490135,-0.51014139,0.46155381,0.73729948,-0.77889773,6.0235065)"
       gradientUnits="userSpaceOnUse" />
    <radialGradient
       inkscape:collect="always"
       xlink:href="#linearGradient1"
       id="radialGradient2-5"
       cx="8.9362221"
       cy="4.6369762"
       fx="8.9362221"
       fy="4.6369762"
       r="3.4718673"
       gradientTransform="matrix(0.03422015,0.96080041,-0.869301,0.03095487,15.858441,2.311917)"
       gradientUnits="userSpaceOnUse" />
    <radialGradient
       inkscape:collect="always"
       xlink:href="#linearGradient1"
       id="radialGradient2-8"
       cx="8.9362221"
       cy="4.6369762"
       fx="8.9362221"
       fy="4.6369762"
       r="3.4718673"
       gradientTransform="matrix(-0.91078116,-0.30787355,0.27855998,-0.82404295,11.733189,17.550743)"
       gradientUnits="userSpaceOnUse" />
  </defs>
  <g
     inkscape:label="Layer 1"
     inkscape:groupmode="layer"
     id="layer1">
    <path
       style="fill:url(#radialGradient2);fill-opacity:1;stroke:#341339;stroke-width:0.405266;stroke-dasharray:none;stroke-opacity:1"
       id="path1"
       d="m 8.145343,5.5579358 c 0.027258,0.068237 0.061907,0.1326636 0.098736,0.1956551 0.054735,0.09151 0.1238229,0.1718923 0.2056224,0.2379223 0.053672,0.043324 0.080227,0.055724 0.1380837,0.088963 0.088269,0.045326 0.1825019,0.076656 0.2801392,0.090112 0.0664,0.00915 0.087229,0.00703 0.1526522,0.00708 0.1359493,-0.00475 0.2659124,-0.044568 0.3923928,-0.093825 0.1047705,-0.044308 0.2065981,-0.098196 0.2995598,-0.1657683 0.02323,-0.016888 0.04547,-0.035231 0.0682,-0.052844 0.09136,-0.076514 0.173025,-0.1650678 0.2423189,-0.2637581 0.04756,-0.067733 0.05822,-0.090575 0.09881,-0.1623051 0.06635,-0.126785 0.120212,-0.261378 0.153859,-0.4017981 0.0071,-0.029789 0.01248,-0.060017 0.01872,-0.090027 0.01955,-0.1238621 0.02745,-0.2508522 0.01233,-0.3758618 -0.01159,-0.095721 -0.0184,-0.1123321 -0.04052,-0.2014505 -0.04439,-0.1447997 -0.108874,-0.2837613 -0.19462,-0.4069657 -0.01923,-0.027631 -0.04004,-0.054012 -0.06006,-0.081018 C 9.9168471,3.7644176 9.8040301,3.6635295 9.6771031,3.5856713 9.6512166,3.5697943 9.6242878,3.5558486 9.5978803,3.5409364 9.4593627,3.466312 9.309043,3.4240744 9.1569761,3.3929964 9.0110556,3.3654075 8.8626906,3.3590128 8.7147603,3.3562235 c -0.1391412,0.00149 -0.2793015,0.010698 -0.4159245,0.04001 -0.035302,0.00757 -0.070186,0.017141 -0.1052782,0.025707 C 7.9921515,3.4735074 7.8119813,3.5795206 7.6383699,3.6944161 7.4977923,3.7893416 7.3678341,3.8994363 7.2433907,4.0160496 7.1233981,4.1328163 7.0167871,4.264973 6.935523,4.4142827 6.917832,4.4467867 6.902551,4.4806577 6.886065,4.5138457 6.827329,4.645878 6.7843996,4.7849368 6.7576528,4.9278228 c -0.0164,0.087616 -0.018071,0.1177204 -0.027646,0.2051357 -0.021746,0.2208388 0.00861,0.4412315 0.051397,0.6570874 0.028796,0.1365231 0.071809,0.2692435 0.1269354,0.3965464 0.031796,0.073428 0.047517,0.1014176 0.083534,0.1717944 0.064387,0.1198428 0.1412531,0.2321076 0.2292418,0.3342527 0.05713,0.066322 0.079289,0.086083 0.1402586,0.146706 0.1204767,0.114995 0.2516326,0.2174138 0.3913681,0.305427 0.033911,0.021361 0.068671,0.041206 0.103006,0.061814 0.196232,0.1132468 0.405344,0.1973796 0.618074,0.2694125 0.197873,0.068342 0.4034782,0.1021993 0.6101043,0.1242945 0.1935541,0.018289 0.3890525,0.011403 0.5804328,-0.024742 0.040994,-0.00775 0.0815,-0.018077 0.1222503,-0.027117 0.189348,-0.048117 0.3722449,-0.1215001 0.5451299,-0.2153342 0.03232,-0.017543 0.06387,-0.03659 0.09581,-0.054886 0.180731,-0.1052161 0.341248,-0.2415005 0.494015,-0.3861429 0.151487,-0.1416686 0.280829,-0.305342 0.402827,-0.4745521 0.105897,-0.1469833 0.196061,-0.3050095 0.279291,-0.4668542 0.06601,-0.1329753 0.125219,-0.2702208 0.167775,-0.4135112 0.0097,-0.032985 0.01796,-0.066472 0.02693,-0.099709 0.03995,-0.1659182 0.06526,-0.3364744 0.06445,-0.5079274 -1.75e-4,-0.037585 -0.0027,-0.075118 -0.0039,-0.1126767 C 11.845467,4.5945942 11.791137,4.37903 11.733159,4.1658015 11.675269,3.96445 11.606502,3.7668611 11.529963,3.5725143 11.462203,3.4100844 11.387564,3.2497622 11.292926,3.1023133 c -0.02074,-0.032322 -0.0432,-0.063406 -0.0648,-0.095108 -0.112229,-0.1560231 -0.24767,-0.2919402 -0.396949,-0.4087867 -0.02774,-0.021716 -0.05645,-0.042057 -0.08467,-0.063084 C 10.58821,2.4186954 10.413953,2.3302485 10.235914,2.2523436 10.051612,2.1740216 9.8584201,2.1232795 9.6648637,2.0773815 9.4729712,2.032038 9.2781307,2.0052612 9.082433,1.9865793 8.8747432,1.9688269 8.6661829,1.9756813 8.4582391,1.9834834 8.2571833,1.9891127 8.0570907,2.0067369 7.8581579,2.037296 7.638014,2.0738006 7.4270393,2.149501 7.22097,2.2360922 7.0447188,2.3111797 6.8754156,2.4020375 6.7096106,2.4993506 6.5277045,2.6071876 6.3618757,2.7403284 6.2032904,2.8820467 6.0889809,2.9882725 5.9811008,3.1025807 5.8860684,3.2280708 5.8188367,3.316851 5.8059194,3.34102 5.7461049,3.434468 5.6526671,3.5848613 5.5819532,3.748115 5.5262165,3.9173734 5.492313,4.0203355 5.4833635,4.0599913 5.4555697,4.1644402 5.4015833,4.3748413 5.3694817,4.5901224 5.3447196,4.8061031 c -0.019201,0.1795295 -0.022086,0.3602824 -0.01953,0.5407192 0.00234,0.1729229 0.028418,0.3438816 0.06132,0.5129167 0.036138,0.1831562 0.094206,0.3600304 0.1580419,0.5343144 0.07063,0.1875546 0.1499277,0.3714837 0.2308418,0.5543976 0.036393,0.081395 0.072534,0.1629101 0.1090138,0.2442629 C 6.2413766,7.9886715 7.317778,7.460741 6.9608086,6.6647834 v 0 C 6.9251296,6.5852421 6.8898125,6.5055277 6.8542135,6.4259475 6.7841814,6.2680282 6.715615,6.1091803 6.654091,5.9474094 6.6131123,5.8368498 6.5745751,5.7250307 6.5509408,5.6087717 6.5322473,5.515775 6.5158405,5.4217323 6.5139342,5.3264532 6.5117174,5.2018298 6.5131417,5.0769393 6.5253177,4.9528335 c 0.017349,-0.1544205 0.03902,-0.3085066 0.076716,-0.4591579 0.033262,-0.1293742 0.06714,-0.2604293 0.136517,-0.3746181 0.023862,-0.039015 0.036107,-0.060855 0.0628,-0.097481 0.052464,-0.071992 0.1133885,-0.1367193 0.1775665,-0.1972457 0.098105,-0.089374 0.2011393,-0.173027 0.3138781,-0.2415282 0.1215176,-0.071816 0.2455611,-0.1389776 0.3748121,-0.1944732 0.118859,-0.051084 0.2402662,-0.097552 0.3671576,-0.121522 0.1544082,-0.025123 0.3101325,-0.035674 0.4662686,-0.040826 0.158118,-0.00598 0.3167207,-0.01275 0.4747527,-0.00112 0.1435822,0.013283 0.2864999,0.032164 0.4273137,0.065305 0.127518,0.029922 0.2553748,0.061142 0.3774891,0.110678 0.09812,0.041883 0.194973,0.088412 0.2823919,0.1517842 0.0744,0.053001 0.146892,0.1105606 0.203045,0.1850099 0.06903,0.094754 0.120312,0.2010681 0.165358,0.3102431 0.05984,0.1502163 0.112412,0.3034062 0.158442,0.4588724 0.03336,0.1219074 0.06794,0.2442232 0.08162,0.3706573 0.0072,0.077925 -0.0018,0.1555733 -0.0197,0.2314931 -0.02148,0.089125 -0.05479,0.1738953 -0.09625,0.2549985 -0.05413,0.1064896 -0.112636,0.210615 -0.181957,0.3072372 -0.07673,0.1076142 -0.156886,0.2128189 -0.253192,0.3023473 -0.08358,0.080743 -0.1707459,0.1581115 -0.2697829,0.2176372 -0.101249,0.060291 -0.2070237,0.1127942 -0.3203446,0.1432491 -0.041944,0.010573 -0.061756,0.016657 -0.1041578,0.023129 -0.074606,0.011403 -0.1503705,0.01239 -0.2253998,0.00548 C 9.077928,6.3510818 8.9556556,6.3330685 8.8381441,6.2924996 8.7025014,6.2472016 8.5687017,6.195672 8.4427504,6.1253814 8.3477648,6.0700336 8.2551373,6.0101573 8.1748735,5.9326501 8.1226164,5.8829416 8.0720217,5.8309701 8.0370985,5.7658861 7.997352,5.6912345 7.9605413,5.6147472 7.9440681,5.5302669 7.9328194,5.4785736 7.9236781,5.4270823 7.9174366,5.3744336 c -0.00174,-0.014599 -0.00289,-0.029255 -0.00445,-0.043868 -8.324e-4,-0.00764 -0.00265,-0.015225 -0.00274,-0.022914 -1.826e-4,-0.014082 0.00127,-0.028137 0.0019,-0.042201 0.00568,-0.066648 0.01408,-0.1327122 0.037304,-0.195576 0.00178,-0.00473 0.0098,-0.026757 0.012806,-0.03238 0.019843,-0.037076 0.048428,-0.068082 0.076989,-0.097796 0.074748,-0.071086 0.1529894,-0.1379595 0.237368,-0.1963253 0.040608,-0.027253 0.081605,-0.05304 0.1230814,-0.078754 0.00554,-0.00345 0.0105,-0.00796 0.016316,-0.010886 0.018539,-0.00937 0.043994,-0.017937 0.063514,-0.024995 0.069754,-0.022698 0.1438489,-0.026606 0.2164132,-0.029371 0.080621,0.00104 0.1615995,0.00307 0.241465,0.015538 0.025113,0.00432 0.1245869,0.022857 0.1502788,0.049653 0.00965,0.019038 -0.045158,-0.00533 -0.051804,0.04435 -0.047304,0.065053 -0.9063047,0.1686608 -0.8904857,0.84902 z"
       sodipodi:nodetypes="ccscsccscscccccscscccccccscsccscscscccccsccccccscccccccccccccccscccccccccssccccccccccccccccccccccccccccccccccccccccccccccccccc" />
    <path
       style="fill:url(#radialGradient2-5);fill-opacity:1;stroke:#341339;stroke-width:0.405266;stroke-dasharray:none;stroke-opacity:1"
       id="path1-6"
       d="m 11.798485,10.272795 c -0.07273,-0.01052 -0.145844,-0.01274 -0.218811,-0.01234 -0.10662,0.0016 -0.210777,0.02126 -0.308865,0.05908 -0.06436,0.02481 -0.08838,0.04161 -0.146093,0.07508 -0.0834,0.05377 -0.157655,0.119701 -0.218133,0.197525 -0.04109,0.05295 -0.04969,0.07204 -0.08249,0.12864 -0.06392,0.120077 -0.09439,0.252559 -0.114996,0.386716 -0.01403,0.112888 -0.01828,0.228017 -0.0063,0.342311 0.003,0.02857 0.0078,0.05699 0.01166,0.08548 0.02054,0.117382 0.05642,0.232383 0.107216,0.341747 0.03486,0.07506 0.04932,0.09572 0.09114,0.166735 0.07661,0.120864 0.166223,0.234817 0.270995,0.334181 0.02224,0.02105 0.04573,0.04082 0.0686,0.06124 0.09748,0.07888 0.2035,0.149224 0.319315,0.19865 0.08869,0.03784 0.106481,0.04024 0.194713,0.06566 0.147591,0.03398 0.300175,0.04763 0.449749,0.035 0.03355,-0.0028 0.0668,-0.0077 0.100204,-0.01145 0.149235,-0.02319 0.293012,-0.07047 0.423919,-0.141413 0.02671,-0.01444 0.05224,-0.03082 0.07836,-0.04623 0.133893,-0.08263 0.245649,-0.191678 0.348612,-0.307819 0.09687,-0.112563 0.176601,-0.237846 0.252998,-0.364552 0.06828,-0.121241 0.130416,-0.247215 0.173362,-0.380184 0.01107,-0.03437 0.02026,-0.06935 0.03039,-0.104021 0.05607,-0.200202 0.05437,-0.409238 0.0417,-0.617039 -0.0119,-0.16921 -0.04224,-0.336808 -0.08099,-0.502889 -0.04113,-0.162301 -0.102227,-0.3207196 -0.190883,-0.4657627 -0.0193,-0.031572 -0.041,-0.061747 -0.06148,-0.092622 -0.08498,-0.1169385 -0.183929,-0.223655 -0.294286,-0.3182758 -0.06767,-0.058022 -0.0929,-0.074521 -0.163812,-0.1265349 -0.180338,-0.1292901 -0.386367,-0.213229 -0.594695,-0.284118 -0.132627,-0.043337 -0.269068,-0.072468 -0.406876,-0.088397 -0.07949,-0.00919 -0.111588,-0.00957 -0.190541,-0.013582 -0.135981,-0.00418 -0.271639,0.00624 -0.404096,0.03135 -0.086,0.016302 -0.114196,0.02561 -0.197188,0.048088 -0.159833,0.046818 -0.314115,0.1091721 -0.460216,0.1861619 -0.03546,0.018683 -0.07003,0.038856 -0.105039,0.058287 -0.196205,0.1132936 -0.37364,0.2523 -0.5424069,0.4004913 -0.158138,0.1371732 -0.2902841,0.2982858 -0.4127546,0.4661652 -0.1126372,0.158463 -0.2044416,0.331202 -0.2688578,0.515005 -0.013832,0.03935 -0.025103,0.07962 -0.037654,0.119427 -0.053025,0.188033 -0.08095,0.383112 -0.086154,0.579752 -9.722e-4,0.03676 -2.566e-4,0.07361 -3.835e-4,0.110418 7.276e-4,0.209126 0.038468,0.416285 0.087321,0.620912 0.04692,0.202032 0.1239684,0.395893 0.2094858,0.586163 0.074321,0.16521 0.1660736,0.322319 0.2646002,0.475334 0.082138,0.123664 0.1713773,0.243576 0.2741778,0.352088 0.02372,0.0249 0.04858,0.0488 0.07288,0.07319 0.123699,0.117574 0.258736,0.224788 0.407612,0.309833 0.03263,0.01864 0.0664,0.03523 0.09953,0.05298 0.199194,0.09948 0.413035,0.160242 0.626678,0.216674 0.203315,0.05057 0.408809,0.08984 0.615384,0.12075 0.174545,0.02256 0.350706,0.0381 0.52572,0.02989 0.03837,-0.0018 0.07651,-0.0057 0.114768,-0.0085 0.191236,-0.01916 0.376672,-0.06847 0.552512,-0.139304 0.03268,-0.01313 0.06465,-0.02785 0.09697,-0.04177 0.180171,-0.07874 0.34391,-0.185413 0.500412,-0.300626 0.159996,-0.120428 0.300554,-0.262347 0.437099,-0.407006 0.135234,-0.143494 0.255864,-0.298827 0.369912,-0.458951 0.119242,-0.170973 0.21761,-0.355005 0.314852,-0.538976 0.09567,-0.176921 0.180482,-0.359009 0.253508,-0.54656 0.07849,-0.208892 0.118443,-0.429446 0.146516,-0.6512 0.02313,-0.190172 0.02912,-0.382221 0.02778,-0.574468 -0.0024,-0.211455 -0.03477,-0.421641 -0.07819,-0.6298443 -0.03482,-0.1521689 -0.07986,-0.3027546 -0.141,-0.4478083 C 14.902691,9.3789323 14.888217,9.3556605 14.837205,9.2571296 14.753707,9.1009946 14.647701,8.9581145 14.529005,8.8252 14.456798,8.744349 14.426934,8.716766 14.350386,8.6404619 14.195185,8.4884874 14.024815,8.3530238 13.850169,8.2235665 13.704305,8.1171542 13.549224,8.024259 13.391694,7.9362337 13.24078,7.8517797 13.079694,7.7888635 12.916862,7.7328188 12.740183,7.6725142 12.557975,7.6343416 12.375127,7.6024594 12.17739,7.5698242 11.978458,7.5465075 11.779594,7.5250985 c -0.08868,-0.00919 -0.177348,-0.018662 -0.266041,-0.027757 -0.867793,-0.088947 -0.948947,1.107199 -0.08115,1.1961458 v 0 c 0.08673,0.00888 0.173418,0.018163 0.260132,0.027138 0.171776,0.018335 0.343623,0.038398 0.514479,0.066024 0.116235,0.019806 0.232341,0.042354 0.344834,0.080034 0.08988,0.030326 0.179523,0.063145 0.262986,0.109142 0.109014,0.060421 0.216465,0.1240978 0.317848,0.196706 0.125046,0.092252 0.247641,0.188078 0.359244,0.2960668 0.0954,0.093504 0.191944,0.1883844 0.256131,0.3055695 0.02185,0.040171 0.03465,0.061706 0.05301,0.1031324 0.03611,0.081431 0.06169,0.166565 0.082,0.252411 0.02831,0.129659 0.04924,0.260713 0.05218,0.392598 0.0014,0.141147 -0.0025,0.282153 -0.01904,0.421831 -0.01521,0.128473 -0.03569,0.256847 -0.07839,0.378718 -0.05546,0.146274 -0.124212,0.286403 -0.197829,0.424191 -0.07388,0.139924 -0.147356,0.280644 -0.236478,0.411667 -0.08331,0.117698 -0.17113,0.232013 -0.27026,0.337374 -0.08968,0.09546 -0.180661,0.190568 -0.28463,0.271539 -0.08534,0.06403 -0.174068,0.124623 -0.272666,0.168631 -0.08311,0.03792 -0.169204,0.07191 -0.261757,0.0833 -0.116572,0.0124 -0.234285,0.0036 -0.351356,-0.01197 -0.160007,-0.0233 -0.318957,-0.05439 -0.476604,-0.09228 -0.122251,-0.03208 -0.245465,-0.06331 -0.361794,-0.114691 -0.07108,-0.03274 -0.13382,-0.07936 -0.190612,-0.132832 -0.06643,-0.06317 -0.123184,-0.134413 -0.172682,-0.210876 -0.06514,-0.100132 -0.126051,-0.20287 -0.175057,-0.311221 -0.05482,-0.120264 -0.105836,-0.242289 -0.135202,-0.370461 -0.02816,-0.112748 -0.05151,-0.226935 -0.05355,-0.342463 -0.0016,-0.117828 0.0059,-0.235684 0.03616,-0.349046 0.01182,-0.04161 0.01646,-0.06181 0.03206,-0.101764 0.02744,-0.07031 0.06447,-0.136411 0.107963,-0.197938 0.07168,-0.100331 0.148431,-0.197207 0.242332,-0.278679 0.107064,-0.0948 0.218602,-0.1849 0.342458,-0.258817 0.09544,-0.05458 0.193608,-0.10484 0.300867,-0.135583 0.06919,-0.02039 0.139488,-0.03822 0.213315,-0.03591 0.08452,0.0029 0.169168,0.0093 0.250561,0.03728 0.05039,0.01611 0.09955,0.03395 0.148263,0.05487 0.01349,0.0058 0.02678,0.01212 0.04024,0.01804 0.007,0.0031 0.01449,0.0054 0.02119,0.0091 0.01228,0.0069 0.02371,0.0152 0.03559,0.02275 0.05487,0.03827 0.107886,0.07856 0.150707,0.130111 0.0032,0.0039 0.01827,0.02187 0.02163,0.02729 0.02219,0.03572 0.03474,0.07598 0.04618,0.115582 0.02414,0.100292 0.04294,0.20148 0.0513,0.303736 0.0033,0.04879 0.0051,0.0972 0.0066,0.145966 2.27e-4,0.0065 0.0017,0.01309 0.0013,0.01957 -0.0011,0.02075 -0.0065,0.04706 -0.01011,0.0675 -0.01522,0.07176 -0.0489,0.137875 -0.0828,0.202093 -0.04118,0.06931 -0.0835,0.138389 -0.134217,0.201327 -0.01628,0.0196 -0.0821,0.09646 -0.118151,0.105307 -0.02133,-0.0011 0.02717,-0.03646 -0.01252,-0.06703 -0.03268,-0.0735 0.307201,-0.869173 -0.289873,-1.195732 z"
       sodipodi:nodetypes="ccscsccscscccccscscccccccscsccscscscccccsccccccscccccccccccccccscccccccccssccccccccccccccccccccccccccccccccccccccccccccccccccc" />
    <path
       style="fill:url(#radialGradient2-8);fill-opacity:1;stroke:#341339;stroke-width:0.405266;stroke-dasharray:none;stroke-opacity:1"
       id="path1-60"
       d="m 5.7232561,10.937156 c 0.035568,-0.0643 0.063503,-0.131908 0.08895,-0.200295 0.036185,-0.100306 0.054676,-0.20467 0.054006,-0.309793 -4.417e-4,-0.06897 -0.00766,-0.09738 -0.018549,-0.163207 C 5.8268737,10.166834 5.7914725,10.074055 5.740074,9.9899579 5.7050836,9.9327964 5.6902714,9.9180012 5.6489331,9.8672942 5.5592317,9.7650305 5.4460943,9.6896651 5.3278924,9.6229395 5.2272666,9.569887 5.1210873,9.5251765 5.009933,9.495989 4.9821525,9.4886988 4.9538763,9.4830928 4.9258549,9.4766455 4.8087921,9.4543581 4.6885403,9.4472027 4.5682768,9.4560378 c -0.082538,0.00606 -0.1069673,0.012267 -0.1881936,0.026258 -0.1401483,0.0289 -0.2784353,0.07241 -0.4084358,0.1352567 -0.027555,0.013362 -0.054363,0.028335 -0.081544,0.042503 C 3.781838,9.7233435 3.678533,9.79762 3.5913344,9.888462 c -0.06676,0.069568 -0.075309,0.085356 -0.1302925,0.158896 -0.083989,0.126029 -0.1507387,0.263916 -0.1918302,0.408288 -0.00922,0.03238 -0.016464,0.06519 -0.024695,0.09778 -0.031095,0.147789 -0.037773,0.298989 -0.017692,0.446533 0.0041,0.03009 0.010352,0.05977 0.015521,0.08964 0.029923,0.154469 0.092387,0.297572 0.1645955,0.434962 0.071018,0.130423 0.1599913,0.249322 0.2514801,0.365601 0.089238,0.106768 0.1850948,0.209438 0.2942752,0.296642 0.028207,0.02253 0.057703,0.04348 0.086547,0.06522 0.1674194,0.123265 0.3635424,0.195624 0.5623897,0.257283 0.1624758,0.04873 0.3299716,0.07963 0.499022,0.102144 0.1663521,0.01897 0.336146,0.01783 0.5031725,-0.01378 0.036357,-0.0069 0.072257,-0.0165 0.108381,-0.02474 0.1393926,-0.03811 0.274213,-0.09292 0.4017544,-0.162665 0.078209,-0.04277 0.1025672,-0.06053 0.1763004,-0.108458 0.184722,-0.122966 0.3361166,-0.285981 0.4761175,-0.455762 0.087451,-0.10872 0.1629633,-0.226034 0.2266123,-0.349296 0.036712,-0.0711 0.048426,-0.100989 0.080109,-0.173417 0.052008,-0.125711 0.090254,-0.256282 0.1136242,-0.389058 0.015172,-0.08621 0.01644,-0.115872 0.024774,-0.201448 0.01275,-0.16606 0.009,-0.332425 -0.011324,-0.496313 -0.00493,-0.03976 -0.011572,-0.07924 -0.017362,-0.11886 C 7.1462547,9.8940601 7.0790033,9.6789242 7.0000948,9.4686476 6.9277329,9.2722097 6.8237842,9.0916148 6.7100825,8.9176768 6.6017107,8.7562667 6.4726156,8.6092913 6.3234853,8.4840213 6.2915758,8.4571652 6.2578955,8.4323772 6.2251006,8.4065551 6.0679829,8.2904421 5.8953952,8.1953138 5.7133119,8.1208843 5.6792738,8.106969 5.6445542,8.0946056 5.6101682,8.0814655 5.4143072,8.0081678 5.2071927,7.9701857 4.9985137,7.9434946 4.792948,7.915911 4.5843662,7.919401 4.3761481,7.9320807 4.195329,7.9431533 4.0159212,7.9733958 3.8379467,8.0114236 3.6932218,8.0445053 3.5494962,8.0855554 3.4116341,8.1433229 c -0.031678,0.013376 -0.062825,0.028176 -0.094234,0.042275 -0.1537288,0.07411 -0.3017808,0.1624888 -0.433991,0.2716549 -0.02898,0.023926 -0.056442,0.049645 -0.084754,0.074349 C 2.6351439,8.682713 2.5026674,8.8612347 2.3743092,9.0411009 2.2550891,9.2133805 2.1456674,9.3916981 2.0436755,9.5739796 1.9608331,9.7292601 1.8839771,9.8885314 1.8297469,10.055135 c -0.011891,0.03652 -0.021735,0.07358 -0.032602,0.11037 -0.049729,0.185647 -0.069202,0.376536 -0.065152,0.566064 7.505e-4,0.03522 0.00318,0.07032 0.00477,0.105479 0.00992,0.196378 0.051766,0.387263 0.1041679,0.574403 0.056044,0.192251 0.1390649,0.373925 0.2260665,0.552814 0.086378,0.177251 0.1889945,0.345029 0.2984202,0.508347 0.1177371,0.172012 0.2550727,0.329121 0.3927491,0.485155 0.1316371,0.152074 0.2719497,0.295811 0.4215411,0.430461 0.167622,0.147305 0.35978,0.262699 0.5572644,0.367403 0.1697019,0.0889 0.347214,0.162443 0.5275084,0.229189 0.1986367,0.07255 0.4066806,0.11663 0.6167789,0.149677 0.1545943,0.02124 0.3113751,0.03239 0.4686786,0.02651 0.1112867,-0.0042 0.1381734,-0.0095 0.2483781,-0.02231 0.1755717,-0.02288 0.3467133,-0.07148 0.5130218,-0.135488 0.1011665,-0.03894 0.1375299,-0.05711 0.2359795,-0.101719 0.1970496,-0.0914 0.3840222,-0.202839 0.5668897,-0.320397 0.1511299,-0.09879 0.2928785,-0.210981 0.4309379,-0.327187 0.1323796,-0.111281 0.2482114,-0.239694 0.3582338,-0.372172 0.118905,-0.143923 0.2190643,-0.300844 0.3135671,-0.460592 0.100475,-0.173407 0.192656,-0.351229 0.283028,-0.52966 0.039974,-0.0797 0.080192,-0.15928 0.120074,-0.23902 0.390172,-0.78022 -0.6999231,-1.279262 -1.090099,-0.499044 v 0 c -0.038985,0.07797 -0.078333,0.155778 -0.1174041,0.233712 -0.077914,0.154182 -0.1574709,0.307821 -0.2437511,0.457857 -0.059643,0.101712 -0.1218064,0.202331 -0.1968416,0.294225 -0.060158,0.07334 -0.1225688,0.145578 -0.1951177,0.207371 -0.095066,0.08061 -0.1926489,0.158569 -0.2964286,0.227709 -0.1305205,0.08433 -0.2635185,0.165096 -0.4040021,0.231285 -0.121206,0.05615 -0.2441035,0.112893 -0.3764173,0.131475 -0.045306,0.0062 -0.069968,0.01057 -0.1152166,0.0131 -0.08894,0.005 -0.1776168,-0.0012 -0.2650989,-0.01259 C 4.9883768,12.918192 4.8583975,12.891393 4.7340003,12.847486 4.6014801,12.798882 4.4709632,12.745376 4.3461807,12.680454 4.231392,12.620783 4.1185635,12.556218 4.0196792,12.473165 3.902482,12.36954 3.7957326,12.255672 3.6929018,12.138068 3.5881753,12.019453 3.4825302,11.900963 3.3914902,11.771267 3.3108774,11.65171 3.2350184,11.529124 3.1715307,11.399139 3.1139677,11.281485 3.0571949,11.162746 3.0182362,11.036857 2.9885428,10.934388 2.963248,10.829958 2.9569639,10.722168 c -0.00607,-0.09115 -0.0074,-0.183702 0.014679,-0.2743 0.02965,-0.113421 0.079484,-0.220422 0.1354807,-0.324406 C 3.185525,9.9820443 3.2708294,9.8443704 3.3620372,9.7103198 3.4352884,9.6073212 3.5080822,9.5031205 3.5972955,9.412491 3.6530635,9.357583 3.7188652,9.315398 3.7889671,9.2811932 c 0.082586,-0.03979 0.1692992,-0.067672 0.258328,-0.08692 0.1167011,-0.025511 0.2343433,-0.046138 0.3530231,-0.053644 0.131879,-0.00873 0.2640621,-0.013279 0.3943333,0.0046 0.1154121,0.013587 0.2304872,0.032082 0.3392625,0.071064 0.1107671,0.040211 0.2183715,0.088853 0.3136853,0.1572961 0.034733,0.025775 0.051994,0.037262 0.083843,0.065987 0.056057,0.050539 0.1047843,0.1085597 0.1469482,0.1710019 0.068485,0.1025426 0.1319486,0.2085956 0.1749346,0.3252455 0.050802,0.1336783 0.095615,0.2698753 0.1209374,0.4118723 0.017287,0.108572 0.029573,0.218175 0.020386,0.329374 -0.0054,0.07192 -0.0136,0.143988 -0.041874,0.212224 -0.032623,0.07803 -0.068531,0.154945 -0.1235013,0.221175 -0.032892,0.04143 -0.066968,0.0811 -0.1037731,0.119265 -0.010226,0.01056 -0.020815,0.02077 -0.031111,0.03125 -0.00536,0.0055 -0.010144,0.01166 -0.016026,0.01659 -0.010784,0.0091 -0.022606,0.01681 -0.03387,0.02524 -0.055203,0.03778 -0.1116475,0.07312 -0.1750105,0.09494 -0.00478,0.0016 -0.026919,0.0094 -0.033175,0.01058 -0.041256,0.0081 -0.08336,0.0056 -0.1244388,0.0023 -0.1023521,-0.01286 -0.2036462,-0.03109 -0.3022442,-0.05946 -0.046803,-0.01418 -0.092716,-0.02959 -0.138878,-0.04542 -0.00611,-0.0021 -0.01284,-0.0031 -0.018761,-0.0057 -0.019014,-0.0084 -0.041736,-0.0227 -0.059558,-0.03334 -0.061728,-0.03962 -0.1116633,-0.09451 -0.1597368,-0.148934 -0.050263,-0.06304 -0.099902,-0.127058 -0.1408316,-0.196758 -0.012567,-0.02216 -0.061174,-0.110915 -0.0567,-0.147763 0.0086,-0.01956 0.024486,0.03831 0.067124,0.01202 0.080299,-0.0046 0.7043016,0.594805 1.220958,0.151855 z"
       sodipodi:nodetypes="ccscsccscscccccscscccccccscsccscscscccccsccccccscccccccccccccccscccccccccssccccccccccccccccccccccccccccccccccccccccccccccccccc" />
  </g>
</svg>
